# File created by Blade
# Date/Time:  Wed Jan 21 16:09:38 2015
# Frame Rate: 120.000 fps
#------------------------------------------------------
:FULLY-SPECIFIED
:DEGREES
961
root 19.198663 34.953647 -23.969597 -176.391025 -0.176583 -178.125591
Spine -14.662544 -0.288275 3.650259
Head 7.791113 -1.164510 -2.213503
LeftShoulder -14.440876 -33.469390 17.448449
LeftArm 7.646395 7.125269 -12.018175
LeftForeArm 9.582802 -0.000000 -2.568219
LeftHand -9.216421 0.000000 -2.733068
LeftHandThumb1 -26.253704 0.000000 33.147579
RightShoulder -12.472661 -4.197358 -10.340058
RightArm 10.618433 40.853525 16.581766
RightForeArm -32.397723 -0.000000 4.198583
RightHand -10.844543 -0.000000 1.418351
RightHandThumb1 -24.326973 -0.000000 -32.862282
LeftUpLeg 8.428629 0.522561 6.955411
LeftLeg -14.210511 -0.000000 0.000000
LeftFoot -1.362748 21.509148 10.354828
LeftToeBase -139.573429 -0.000000 0.000000
RightUpLeg 6.714841 -9.869024 -4.684726
RightLeg -3.911817 -0.000000 0.000000
RightFoot -21.791360 -20.464919 17.839735
RightToeBase 24.430332 -0.000000 -0.000000
962
root 19.195944 34.953120 -23.973184 -176.369566 -0.185400 -178.135885
Spine -14.687233 -0.287999 3.656412
Head 7.781068 -1.145023 -2.229348
LeftShoulder -14.446719 -33.462384 17.447453
LeftArm 7.630038 7.102648 -12.013227
LeftForeArm 9.591030 0.000000 -2.566955
LeftHand -9.225094 0.000000 -2.735895
LeftHandThumb1 -26.253704 0.000000 33.147579
RightShoulder -12.478701 -4.196670 -10.364926
RightArm 10.598320 40.861667 16.574408
RightForeArm -32.398045 -0.000000 4.199268
RightHand -10.852288 -0.000000 1.379079
RightHandThumb1 -24.326973 -0.000000 -32.862282
LeftUpLeg 8.413803 0.515701 6.941179
LeftLeg -14.214841 -0.000000 0.000000
LeftFoot -1.364501 21.506412 10.345892
LeftToeBase -139.521318 -0.000000 0.000000
RightUpLeg 6.704278 -9.873339 -4.695400
RightLeg -3.919774 -0.000000 0.000000
RightFoot -21.793382 -20.461141 17.860517
RightToeBase 24.438177 -0.000000 -0.000000
963
root 19.193299 34.952696 -23.977490 -176.361703 -0.186978 -178.145902
Spine -14.694325 -0.289914 3.666354
Head 7.759602 -1.147497 -2.257220
LeftShoulder -14.457968 -33.470087 17.450775
LeftArm 7.601718 7.102483 -12.004882
LeftForeArm 9.595873 -0.000000 -2.565851
LeftHand -9.217922 -0.000000 -2.721136
LeftHandThumb1 -26.253704 0.000000 33.147579
RightShoulder -12.478334 -4.189637 -10.386548
RightArm 10.579239 40.853764 16.558438
RightForeArm -32.383418 -0.000000 4.201105
RightHand -10.847718 -0.000000 1.340483
RightHandThumb1 -24.326973 -0.000000 -32.862282
LeftUpLeg 8.414918 0.525242 6.928166
LeftLeg -14.218307 -0.000000 0.000000
LeftFoot -1.374791 21.494737 10.349725
LeftToeBase -139.533410 -0.000000 0.000000
RightUpLeg 6.703447 -9.886832 -4.709288
RightLeg -3.917189 -0.000000 0.000000
RightFoot -21.803422 -20.456417 17.869963
RightToeBase 24.432319 -0.000000 -0.000000
964
root 19.191105 34.951948 -23.981423 -176.348056 -0.181020 -178.154657
Spine -14.709886 -0.280380 3.672522
Head 7.749123 -1.165973 -2.283378
LeftShoulder -14.463850 -33.443548 17.450672
LeftArm 7.588182 7.060124 -12.001095
LeftForeArm 9.611833 0.000000 -2.571687
LeftHand -9.201176 -0.000000 -2.725706
LeftHandThumb1 -26.253704 0.000000 33.147579
RightShoulder -12.470717 -4.181165 -10.414652
RightArm 10.539787 40.844158 16.542525
RightForeArm -32.381935 -0.000000 4.205630
RightHand -10.830951 -0.000000 1.303415
RightHandThumb1 -24.326973 -0.000000 -32.862282
LeftUpLeg 8.412484 0.528014 6.914813
LeftLeg -14.225368 -0.000000 0.000000
LeftFoot -1.376636 21.496465 10.343811
LeftToeBase -139.562164 -0.000000 0.000000
RightUpLeg 6.696007 -9.887204 -4.721169
RightLeg -3.921185 -0.000000 0.000000
RightFoot -21.808634 -20.446572 17.876551
RightToeBase 24.437400 -0.000000 -0.000000
965
root 19.189179 34.951131 -23.985060 -176.337055 -0.182692 -178.165111
Spine -14.715849 -0.261126 3.670701
Head 7.726615 -1.163328 -2.287538
LeftShoulder -14.450237 -33.452523 17.447899
LeftArm 7.564224 7.057769 -11.996221
LeftForeArm 9.625440 0.000000 -2.578309
LeftHand -9.171571 -0.000000 -2.698758
LeftHandThumb1 -26.253704 0.000000 33.147579
RightShoulder -12.486479 -4.201415 -10.429715
RightArm 10.522177 40.880396 16.538617
RightForeArm -32.395922 -0.000000 4.209425
RightHand -10.825108 -0.000000 1.286880
RightHandThumb1 -24.326973 -0.000000 -32.862282
LeftUpLeg 8.406213 0.520320 6.902624
LeftLeg -14.223421 -0.000000 0.000000
LeftFoot -1.384262 21.499950 10.349829
LeftToeBase -139.557594 -0.000000 0.000000
RightUpLeg 6.689430 -9.908503 -4.735478
RightLeg -3.919232 -0.000000 0.000000
RightFoot -21.797951 -20.406756 17.930500
RightToeBase 24.272955 -0.000000 -0.000000
966
root 19.186531 34.950705 -23.988571 -176.325702 -0.173896 -178.175681
Spine -14.723530 -0.246286 3.676690
Head 7.706850 -1.180811 -2.321720
LeftShoulder -14.461602 -33.459814 17.451722
LeftArm 7.545221 7.102503 -11.984087
LeftForeArm 9.606850 0.000000 -2.580995
LeftHand -9.159531 0.000000 -2.699853
LeftHandThumb1 -26.253704 0.000000 33.147579
RightShoulder -12.484818 -4.196770 -10.460112
RightArm 10.499099 40.926552 16.550338
RightForeArm -32.463177 0.000000 4.230542
RightHand -10.836433 -0.000000 1.266400
RightHandThumb1 -24.326973 -0.000000 -32.862282
LeftUpLeg 8.399707 0.542704 6.887402
LeftLeg -14.213953 -0.000000 0.000000
LeftFoot -1.393355 21.487995 10.351076
LeftToeBase -139.535941 -0.000000 0.000000
RightUpLeg 6.680654 -9.911385 -4.749789
RightLeg -3.911697 -0.000000 0.000000
RightFoot -21.819358 -20.442592 17.846544
RightToeBase 24.443914 -0.000000 -0.000000
967
root 19.184363 34.950084 -23.993125 -176.320635 -0.166616 -178.183144
Spine -14.724763 -0.233340 3.687131
Head 7.685206 -1.178597 -2.345751
LeftShoulder -14.468116 -33.457706 17.456199
LeftArm 7.527448 7.121666 -11.979903
LeftForeArm 9.589630 -0.000000 -2.597918
LeftHand -9.147723 -0.000000 -2.696654
LeftHandThumb1 -26.253704 0.000000 33.147579
RightShoulder -12.487331 -4.201149 -10.481452
RightArm 10.482974 40.911298 16.535364
RightForeArm -32.442662 -0.000000 4.228386
RightHand -10.829842 -0.000000 1.241717
RightHandThumb1 -24.326973 -0.000000 -32.862282
LeftUpLeg 8.408796 0.557702 6.876539
LeftLeg -14.224937 -0.000000 0.000000
LeftFoot -1.393139 21.478394 10.337504
LeftToeBase -139.531027 -0.000000 0.000000
RightUpLeg 6.684486 -9.920343 -4.763073
RightLeg -3.916601 -0.000000 0.000000
RightFoot -21.816685 -20.418782 17.845333
RightToeBase 24.426801 -0.000000 -0.000000
968
root 19.181627 34.949845 -23.995687 -176.312888 -0.163875 -178.189485
Spine -14.722162 -0.225314 3.701662
Head 7.654555 -1.179962 -2.371701
LeftShoulder -14.483344 -33.457300 17.456212
LeftArm 7.513793 7.101799 -11.978243
LeftForeArm 9.605264 0.000000 -2.600704
LeftHand -9.147429 -0.000000 -2.697237
LeftHandThumb1 -26.253704 0.000000 33.147579
RightShoulder -12.479618 -4.164146 -10.519409
RightArm 10.437153 40.884211 16.522537
RightForeArm -32.456417 -0.000000 4.245989
RightHand -10.837742 -0.000000 1.216453
RightHandThumb1 -24.326973 -0.000000 -32.862282
LeftUpLeg 8.403195 0.557946 6.865261
LeftLeg -14.221530 -0.000000 0.000000
LeftFoot -1.401743 21.484553 10.338305
LeftToeBase -139.554377 -0.000000 0.000000
RightUpLeg 6.679889 -9.909274 -4.772150
RightLeg -3.919349 -0.000000 0.000000
RightFoot -21.807771 -20.411898 17.910552
RightToeBase 24.351051 -0.000000 -0.000000
969
root 19.179024 34.949587 -23.998377 -176.309070 -0.162338 -178.196128
Spine -14.716151 -0.221873 3.718294
Head 7.640197 -1.161828 -2.405076
LeftShoulder -14.495497 -33.433386 17.453279
LeftArm 7.498093 7.092231 -11.978977
LeftForeArm 9.586026 0.000000 -2.605908
LeftHand -9.226423 -0.000000 -2.571537
LeftHandThumb1 -26.253704 0.000000 33.147579
RightShoulder -12.478024 -4.182627 -10.532065
RightArm 10.438823 40.901775 16.511329
RightForeArm -32.453002 -0.000000 4.240740
RightHand -10.850704 -0.000000 1.198442
RightHandThumb1 -24.326973 -0.000000 -32.862282
LeftUpLeg 8.402122 0.557221 6.854360
LeftLeg -14.215053 -0.000000 0.000000
LeftFoot -1.406035 21.491288 10.347345
LeftToeBase -139.521942 -0.000000 0.000000
RightUpLeg 6.680498 -9.918615 -4.784091
RightLeg -3.918391 -0.000000 0.000000
RightFoot -21.815348 -20.432716 17.849826
RightToeBase 24.404031 -0.000000 -0.000000
970
root 19.176470 34.949183 -24.001688 -176.303451 -0.154230 -178.198187
Spine -14.712228 -0.218767 3.739497
Head 7.609160 -1.156123 -2.436786
LeftShoulder -14.515224 -33.415376 17.462249
LeftArm 7.471701 7.090550 -11.982834
LeftForeArm 9.542335 -0.000000 -2.606038
LeftHand -9.225900 -0.000000 -2.535408
LeftHandThumb1 -26.253704 0.000000 33.147579
RightShoulder -12.455766 -4.150673 -10.562918
RightArm 10.389355 40.879881 16.481656
RightForeArm -32.431051 -0.000000 4.249500
RightHand -10.834274 -0.000000 1.171544
RightHandThumb1 -24.326973 -0.000000 -32.862282
LeftUpLeg 8.406528 0.545668 6.848062
LeftLeg -14.218303 -0.000000 0.000000
LeftFoot -1.412971 21.500670 10.344231
LeftToeBase -139.517863 -0.000000 0.000000
RightUpLeg 6.682907 -9.921345 -4.790790
RightLeg -3.927338 -0.000000 0.000000
RightFoot -21.817993 -20.428019 17.839006
RightToeBase 24.466973 -0.000000 -0.000000
